<svg id="Layer_1" data-name="Layer 1" xmlns="http://www.w3.org/2000/svg" viewBox="0 0 181.39 105.73"><defs><style>.cls-1{fill:#fff;}.cls-2{fill:#f15d2a;}</style></defs><title>C5_final_logo_vert</title><path class="cls-1" d="M18.76,105.94v8.24c0,11.92,6.23,11.92,9.58,11.92,1.24,0,4.15,0,6.29-2.17,1.54-1.57,2.32-3.95,2.32-7.07a.7.7,0,0,0-.65-.7H33a.65.65,0,0,0-.65.63c-.13,4.76-2.7,5.46-4.22,5.46-2.54,0-4.84-.58-4.84-7.62v-7.79c0-4.32.56-5.4.75-5.75l.05-.12,0-.1c.1-.32,1.2-2,4-2a4.55,4.55,0,0,1,3,1.12,5.55,5.55,0,0,1,.77,3.45v.26a.65.65,0,0,0,.65.66h3.28a.65.65,0,0,0,.65-.62l0-.9c0-2.55-.6-4.43-1.83-5.74S31.34,95,28.49,95C21.76,95,18.76,98.37,18.76,105.94Z" transform="translate(-18.76 -20.37)"/><path class="cls-1" d="M40.27,110.15h0a.63.63,0,0,0,.18.49.64.64,0,0,0,.47.2h3a.65.65,0,0,0,.47-.2.63.63,0,0,0,.18-.47V110a2.58,2.58,0,0,1,2.84-2.79,2.91,2.91,0,0,1,2.21.75,4.88,4.88,0,0,1,.87,3.37s0,.75,0,.79c-3.3-.07-6.93.15-9,2.19a6,6,0,0,0-1.69,4.53c0,4.83,1.89,7.08,5.94,7.08a5.24,5.24,0,0,0,4.83-2.54v1.48a.66.66,0,0,0,.65.65h3a.65.65,0,0,0,.49-.23.62.62,0,0,0,.15-.52,32.25,32.25,0,0,1-.36-4.47v-9.81c0-4.38-2.29-6.51-7-6.51S40.53,105.86,40.27,110.15Zm3.36,8.92c0-3.39,2.76-3.68,6.38-3.7h.27l0,.75c0,2.55-.5,4.36-1.46,5.38a3.17,3.17,0,0,1-2.4,1C44.71,122.44,43.63,121.15,43.63,119.07Z" transform="translate(-18.76 -20.37)"/><path class="cls-1" d="M68.28,104h0c-2.69,0-4.42.45-5.72,2.52V105a.65.65,0,0,0-.65-.65H59.15a.66.66,0,0,0-.65.65v19.83a.66.66,0,0,0,.65.65h2.75a.66.66,0,0,0,.65-.65V113.09c0-3.42,1.43-5.15,4.23-5.15l1.27.13h0l.13,0a.66.66,0,0,0,.75-.65v-2.82a.66.66,0,0,0-.19-.46A.64.64,0,0,0,68.28,104Z" transform="translate(-18.76 -20.37)"/><path class="cls-1" d="M62,107.69Z" transform="translate(-18.76 -20.37)"/><path class="cls-1" d="M72.53,95.6a.65.65,0,0,0-.65.65v28.59a.66.66,0,0,0,.65.65h2.75a.66.66,0,0,0,.65-.65v-1.15a5.22,5.22,0,0,0,4.39,2.21c3.24,0,7-1.21,7-10.62,0-6-.55-11.32-7.12-11.32a5.37,5.37,0,0,0-4.23,2V96.25a.66.66,0,0,0-.65-.65Zm4.77,26.1h0c-1.42-1.43-1.39-4.58-1.37-6.88v-.71c0-3.31.41-6.69,3.46-6.69s3.67,2.43,3.67,7.9c0,3.76-.29,7.13-3.79,7.13A2.65,2.65,0,0,1,77.3,121.69Z" transform="translate(-18.76 -20.37)"/><path class="cls-1" d="M90.19,115.23c0,9.84,4.2,10.67,8.13,10.67s8.13-.82,8.13-10.67c0-5.94-.62-11.27-8.13-11.27S90.19,109.29,90.19,115.23Zm4.22-1.42c0-5.32,1.56-6.4,3.91-6.4s3.91,1.09,3.91,6.4c0,6.7-.88,8.63-3.91,8.63S94.41,120.51,94.41,113.81Z" transform="translate(-18.76 -20.37)"/><path class="cls-1" d="M113.88,106.38V105a.65.65,0,0,0-.65-.65H110.3a.67.67,0,0,0-.65.71c.12,1.49.18,2.77.18,3.91v15.87a.66.66,0,0,0,.65.65h2.75a.66.66,0,0,0,.65-.65V113c0-3.89,1.17-5.64,3.79-5.64,2.2,0,3.22,1.14,3.22,3.59v13.84a.66.66,0,0,0,.66.65h2.75a.66.66,0,0,0,.65-.65V111c0-4.93-1.74-7-5.82-7C116.59,104,115.1,104.66,113.88,106.38Z" transform="translate(-18.76 -20.37)"/><path class="cls-1" d="M139.79,95.6a.66.66,0,0,0-.65.65v28.59a.66.66,0,0,0,.65.65h3.15a.66.66,0,0,0,.65-.65V112.17h9.52a.66.66,0,0,0,.65-.66v-2.66a.65.65,0,0,0-.65-.65h-9.52V99.57h10.09a.65.65,0,0,0,.65-.65V96.25a.65.65,0,0,0-.65-.65Z" transform="translate(-18.76 -20.37)"/><path class="cls-1" d="M158.71,95.6a.65.65,0,0,0-.65.65v3a.65.65,0,0,0,.65.65h3.15a.65.65,0,0,0,.65-.65v-3a.66.66,0,0,0-.65-.65Zm.21,8.76a.66.66,0,0,0-.66.65v19.83a.66.66,0,0,0,.66.65h2.74a.65.65,0,0,0,.66-.65V105a.65.65,0,0,0-.66-.65Z" transform="translate(-18.76 -20.37)"/><path class="cls-1" d="M179.48,104.36a.67.67,0,0,0-.63.47l-4.54,15.92c-.16-.62-4.2-15.91-4.2-15.91a.66.66,0,0,0-.63-.48h-3.12a.65.65,0,0,0-.62.84L171.62,125a.65.65,0,0,0,.63.46h3.91a.65.65,0,0,0,.62-.46L183,105.21a.65.65,0,0,0-.09-.58.67.67,0,0,0-.53-.27Z" transform="translate(-18.76 -20.37)"/><path class="cls-1" d="M184.39,115.23c0,9.84,4.2,10.67,8.12,10.67,4.64,0,7.29-2.36,7.45-6.65a.64.64,0,0,0-.19-.47.65.65,0,0,0-.47-.2h-3.08a.65.65,0,0,0-.65.59c-.21,2-1.41,3.29-3.15,3.29-1.92,0-3.65-.48-3.73-6.07h10.8a.66.66,0,0,0,.65-.66v-1.46c0-7.6-2-10.3-7.64-10.3C185,104,184.39,109.29,184.39,115.23Zm7.85-8c2,0,3.61.45,3.69,5.92h-7.17C188.87,107.93,190.49,107.2,192.24,107.2Z" transform="translate(-18.76 -20.37)"/><path class="cls-2" d="M140.23,62A5.14,5.14,0,0,0,142,56.55L131.34,23.72a5.18,5.18,0,0,0-4.62-3.35H92.19a5.19,5.19,0,0,0-4.62,3.35L76.91,56.55A5.15,5.15,0,0,0,78.69,62L106.6,82.26a5.21,5.21,0,0,0,5.71,0Z" transform="translate(-18.76 -20.37)"/><path class="cls-1" d="M131.72,51A1.73,1.73,0,0,1,130,53.4H89.17A1.73,1.73,0,0,1,87.43,51L94,30.88a3.69,3.69,0,0,1,3.29-2.4h24.63a3.7,3.7,0,0,1,3.29,2.4l1.11,3.43a1.71,1.71,0,0,1-1.73,2.39H104.33a3.65,3.65,0,0,0-3.27,2.41L100,42.61a1.75,1.75,0,0,0,1.76,2.4h25.52a3.73,3.73,0,0,1,3.3,2.39Z" transform="translate(-18.76 -20.37)"/><path class="cls-1" d="M94.51,62.62c-1.13-.81-.91-1.47.48-1.47h29.18c1.39,0,1.6.66.48,1.47l-13,9.48a3.73,3.73,0,0,1-4.09,0Z" transform="translate(-18.76 -20.37)"/></svg>