<?xml version="1.0" standalone="yes"?>

<svg version="1.1" viewBox="0.0 0.0 1441.0839895013123 1137.3648293963254" fill="none" stroke="none" stroke-linecap="square" stroke-miterlimit="10" xmlns="http://www.w3.org/2000/svg" xmlns:xlink="http://www.w3.org/1999/xlink"><clipPath id="p.0"><path d="m0 0l1441.084 0l0 1137.3649l-1441.084 0l0 -1137.3649z" clip-rule="nonzero"></path></clipPath><g clip-path="url(#p.0)"><path fill="#000000" fill-opacity="0.0" d="m0 0l1441.084 0l0 1137.3649l-1441.084 0z" fill-rule="nonzero"></path><path fill="#ffffff" d="m565.17725 243.59055l179.65356 0l0 179.65353l-179.65356 0z" fill-rule="nonzero"></path><path stroke="#000000" stroke-width="3.0" stroke-linejoin="round" stroke-linecap="butt" d="m565.17725 243.59055l179.65356 0l0 179.65353l-179.65356 0z" fill-rule="nonzero"></path><path fill="#ffffff" d="m794.51056 21.740158l179.65356 0l0 179.65355l-179.65356 0z" fill-rule="nonzero"></path><path stroke="#000000" stroke-width="3.0" stroke-linejoin="round" stroke-linecap="butt" d="m794.51056 21.740158l179.65356 0l0 179.65355l-179.65356 0z" fill-rule="nonzero"></path><path fill="#ffffff" d="m21.007782 21.740158l179.65355 0l0 179.65355l-179.65355 0z" fill-rule="nonzero"></path><path stroke="#000000" stroke-width="3.0" stroke-linejoin="round" stroke-linecap="butt" d="m21.007782 21.740158l179.65355 0l0 179.65355l-179.65355 0z" fill-rule="nonzero"></path><path fill="#cfe2f3" d="m43.97638 74.149605l0 0c0 -16.533752 13.403252 -29.937008 29.937004 -29.937008l0 0c7.939789 0 15.554382 3.1540718 21.168663 8.768349c5.6142807 5.614277 8.768349 13.22887 8.768349 21.16866l0 0c0 16.533752 -13.403259 29.937012 -29.937012 29.937012l0 0c-16.533752 0 -29.937004 -13.403259 -29.937004 -29.937012z" fill-rule="nonzero"></path><path stroke="#000000" stroke-width="3.0" stroke-linejoin="round" stroke-linecap="butt" d="m43.97638 74.149605l0 0c0 -16.533752 13.403252 -29.937008 29.937004 -29.937008l0 0c7.939789 0 15.554382 3.1540718 21.168663 8.768349c5.6142807 5.614277 8.768349 13.22887 8.768349 21.16866l0 0c0 16.533752 -13.403259 29.937012 -29.937012 29.937012l0 0c-16.533752 0 -29.937004 -13.403259 -29.937004 -29.937012z" fill-rule="nonzero"></path><path fill="#d9ead3" d="m113.21785 104.08662l34.614166 -59.87402l34.61418 59.87402z" fill-rule="nonzero"></path><path stroke="#000000" stroke-width="3.0" stroke-linejoin="round" stroke-linecap="butt" d="m113.21785 104.08662l34.614166 -59.87402l34.61418 59.87402z" fill-rule="nonzero"></path><path fill="#e6b8af" d="m39.299213 150.87401l34.61417 -34.614166l34.614174 34.614166l-34.614174 34.61418z" fill-rule="nonzero"></path><path stroke="#000000" stroke-width="3.0" stroke-linejoin="round" stroke-linecap="butt" d="m39.299213 150.87401l34.61417 -34.614166l34.614174 34.614166l-34.614174 34.61418z" fill-rule="nonzero"></path><path fill="#ffffff" d="m250.34111 21.740158l179.65355 0l0 179.65355l-179.65355 0z" fill-rule="nonzero"></path><path stroke="#000000" stroke-width="3.0" stroke-linejoin="round" stroke-linecap="butt" d="m250.34111 21.740158l179.65355 0l0 179.65355l-179.65355 0z" fill-rule="nonzero"></path><path fill="#cfe2f3" d="m273.30972 74.149605l0 0c0 -16.533752 13.403229 -29.937008 29.936981 -29.937008l0 0c7.939789 0 15.554413 3.1540718 21.16867 8.768349c5.6142883 5.614277 8.768341 13.22887 8.768341 21.16866l0 0c0 16.533752 -13.403229 29.937012 -29.937012 29.937012l0 0c-16.533752 0 -29.936981 -13.403259 -29.936981 -29.937012z" fill-rule="nonzero"></path><path stroke="#000000" stroke-width="3.0" stroke-linejoin="round" stroke-linecap="butt" d="m273.30972 74.149605l0 0c0 -16.533752 13.403229 -29.937008 29.936981 -29.937008l0 0c7.939789 0 15.554413 3.1540718 21.16867 8.768349c5.6142883 5.614277 8.768341 13.22887 8.768341 21.16866l0 0c0 16.533752 -13.403229 29.937012 -29.937012 29.937012l0 0c-16.533752 0 -29.936981 -13.403259 -29.936981 -29.937012z" fill-rule="nonzero"></path><path fill="#d9ead3" d="m268.63254 184.6594l34.614166 -59.874016l34.614197 59.874016z" fill-rule="nonzero"></path><path stroke="#000000" stroke-width="3.0" stroke-linejoin="round" stroke-linecap="butt" d="m268.63254 184.6594l34.614166 -59.874016l34.614197 59.874016z" fill-rule="nonzero"></path><path fill="#e6b8af" d="m339.19815 74.149605l34.614197 -34.61417l34.614166 34.61417l-34.614166 34.614174z" fill-rule="nonzero"></path><path stroke="#000000" stroke-width="3.0" stroke-linejoin="round" stroke-linecap="butt" d="m339.19815 74.149605l34.614197 -34.61417l34.614166 34.61417l-34.614166 34.614174z" fill-rule="nonzero"></path><path fill="#ffffff" d="m21.007782 243.59055l179.65355 0l0 179.65353l-179.65355 0z" fill-rule="nonzero"></path><path stroke="#000000" stroke-width="3.0" stroke-linejoin="round" stroke-linecap="butt" d="m21.007782 243.59055l179.65355 0l0 179.65353l-179.65355 0z" fill-rule="nonzero"></path><path fill="#cfe2f3" d="m117.89501 295.99738l0 0c0 -16.533752 13.403252 -29.937012 29.937004 -29.937012l0 0c7.939789 0 15.554382 3.1540833 21.16867 8.768341c5.614273 5.6142883 8.768341 13.228882 8.768341 21.16867l0 0c0 16.533752 -13.403259 29.937012 -29.937012 29.937012l0 0c-16.533752 0 -29.937004 -13.403259 -29.937004 -29.937012z" fill-rule="nonzero"></path><path stroke="#000000" stroke-width="3.0" stroke-linejoin="round" stroke-linecap="butt" d="m117.89501 295.99738l0 0c0 -16.533752 13.403252 -29.937012 29.937004 -29.937012l0 0c7.939789 0 15.554382 3.1540833 21.16867 8.768341c5.614273 5.6142883 8.768341 13.228882 8.768341 21.16867l0 0c0 16.533752 -13.403259 29.937012 -29.937012 29.937012l0 0c-16.533752 0 -29.937004 -13.403259 -29.937004 -29.937012z" fill-rule="nonzero"></path><path fill="#d9ead3" d="m113.21785 402.6614l34.614166 -59.873993l34.61418 59.873993z" fill-rule="nonzero"></path><path stroke="#000000" stroke-width="3.0" stroke-linejoin="round" stroke-linecap="butt" d="m113.21785 402.6614l34.614166 -59.873993l34.61418 59.873993z" fill-rule="nonzero"></path><path fill="#e6b8af" d="m39.299213 296.0l34.61417 -34.614166l34.614174 34.614166l-34.614174 34.614166z" fill-rule="nonzero"></path><path stroke="#000000" stroke-width="3.0" stroke-linejoin="round" stroke-linecap="butt" d="m39.299213 296.0l34.61417 -34.614166l34.614174 34.614166l-34.614174 34.614166z" fill-rule="nonzero"></path><path fill="#ffffff" d="m565.17725 21.740158l179.65356 0l0 179.65355l-179.65356 0z" fill-rule="nonzero"></path><path stroke="#000000" stroke-width="3.0" stroke-linejoin="round" stroke-linecap="butt" d="m565.17725 21.740158l179.65356 0l0 179.65355l-179.65356 0z" fill-rule="nonzero"></path><path fill="#cfe2f3" d="m588.1458 372.7244l0 0c0 -16.533752 13.403259 -29.936981 29.937012 -29.936981l0 0c7.9398193 0 15.554382 3.1540527 21.168701 8.768341c5.614258 5.614258 8.768311 13.228851 8.768311 21.16864l0 0c0 16.533752 -13.403259 29.937012 -29.937012 29.937012l0 0c-16.533752 0 -29.937012 -13.403259 -29.937012 -29.937012z" fill-rule="nonzero"></path><path stroke="#000000" stroke-width="3.0" stroke-linejoin="round" stroke-linecap="butt" d="m588.1458 372.7244l0 0c0 -16.533752 13.403259 -29.936981 29.937012 -29.936981l0 0c7.9398193 0 15.554382 3.1540527 21.168701 8.768341c5.614258 5.614258 8.768311 13.228851 8.768311 21.16864l0 0c0 16.533752 -13.403259 29.937012 -29.937012 29.937012l0 0c-16.533752 0 -29.937012 -13.403259 -29.937012 -29.937012z" fill-rule="nonzero"></path><path fill="#d9ead3" d="m812.87024 104.08662l34.614197 -59.87402l34.614136 59.87402z" fill-rule="nonzero"></path><path stroke="#000000" stroke-width="3.0" stroke-linejoin="round" stroke-linecap="butt" d="m812.87024 104.08662l34.614197 -59.87402l34.614136 59.87402z" fill-rule="nonzero"></path><path fill="#e6b8af" d="m583.4687 150.87401l34.614136 -34.614166l34.614197 34.614166l-34.614197 34.61418z" fill-rule="nonzero"></path><path stroke="#000000" stroke-width="3.0" stroke-linejoin="round" stroke-linecap="butt" d="m583.4687 150.87401l34.614136 -34.614166l34.614197 34.614166l-34.614197 34.61418z" fill-rule="nonzero"></path><path fill="#cfe2f3" d="m662.06445 296.0l0 0c0 -16.533752 13.403259 -29.937012 29.937012 -29.937012l0 0c7.9398193 0 15.554382 3.1540833 21.168701 8.768341c5.614258 5.6142883 8.768311 13.228882 8.768311 21.16867l0 0c0 16.533752 -13.403259 29.937012 -29.937012 29.937012l0 0c-16.533752 0 -29.937012 -13.403259 -29.937012 -29.937012z" fill-rule="nonzero"></path><path stroke="#000000" stroke-width="3.0" stroke-linejoin="round" stroke-linecap="butt" d="m662.06445 296.0l0 0c0 -16.533752 13.403259 -29.937012 29.937012 -29.937012l0 0c7.9398193 0 15.554382 3.1540833 21.168701 8.768341c5.614258 5.6142883 8.768311 13.228882 8.768311 21.16867l0 0c0 16.533752 -13.403259 29.937012 -29.937012 29.937012l0 0c-16.533752 0 -29.937012 -13.403259 -29.937012 -29.937012z" fill-rule="nonzero"></path><path fill="#d9ead3" d="m886.72064 104.08662l34.614197 -59.87402l34.614136 59.87402z" fill-rule="nonzero"></path><path stroke="#000000" stroke-width="3.0" stroke-linejoin="round" stroke-linecap="butt" d="m886.72064 104.08662l34.614197 -59.87402l34.614136 59.87402z" fill-rule="nonzero"></path><path fill="#e6b8af" d="m657.3873 74.149605l34.614136 -34.61417l34.614197 34.61417l-34.614197 34.614174z" fill-rule="nonzero"></path><path stroke="#000000" stroke-width="3.0" stroke-linejoin="round" stroke-linecap="butt" d="m657.3873 74.149605l34.614136 -34.61417l34.614197 34.61417l-34.614197 34.614174z" fill-rule="nonzero"></path><path fill="#cfe2f3" d="m588.1458 296.0l0 0c0 -16.533752 13.403259 -29.937012 29.937012 -29.937012l0 0c7.9398193 0 15.554382 3.1540833 21.168701 8.768341c5.614258 5.6142883 8.768311 13.228882 8.768311 21.16867l0 0c0 16.533752 -13.403259 29.937012 -29.937012 29.937012l0 0c-16.533752 0 -29.937012 -13.403259 -29.937012 -29.937012z" fill-rule="nonzero"></path><path stroke="#000000" stroke-width="3.0" stroke-linejoin="round" stroke-linecap="butt" d="m588.1458 296.0l0 0c0 -16.533752 13.403259 -29.937012 29.937012 -29.937012l0 0c7.9398193 0 15.554382 3.1540833 21.168701 8.768341c5.614258 5.6142883 8.768311 13.228882 8.768311 21.16867l0 0c0 16.533752 -13.403259 29.937012 -29.937012 29.937012l0 0c-16.533752 0 -29.937012 -13.403259 -29.937012 -29.937012z" fill-rule="nonzero"></path><path fill="#d9ead3" d="m808.1248 180.81102l34.614197 -59.874016l34.614197 59.874016z" fill-rule="nonzero"></path><path stroke="#000000" stroke-width="3.0" stroke-linejoin="round" stroke-linecap="butt" d="m808.1248 180.81102l34.614197 -59.874016l34.614197 59.874016z" fill-rule="nonzero"></path><path fill="#e6b8af" d="m583.4687 74.149605l34.614136 -34.61417l34.614197 34.61417l-34.614197 34.614174z" fill-rule="nonzero"></path><path stroke="#000000" stroke-width="3.0" stroke-linejoin="round" stroke-linecap="butt" d="m583.4687 74.149605l34.614136 -34.61417l34.614197 34.61417l-34.614197 34.614174z" fill-rule="nonzero"></path><path fill="#ffffff" d="m569.92285 796.5276l179.65356 0l0 179.6535l-179.65356 0z" fill-rule="nonzero"></path><path stroke="#000000" stroke-width="3.0" stroke-linejoin="round" stroke-linecap="butt" d="m569.92285 796.5276l179.65356 0l0 179.6535l-179.65356 0z" fill-rule="nonzero"></path><path fill="#ffffff" d="m799.25616 574.6772l179.65356 0l0 179.6535l-179.65356 0z" fill-rule="nonzero"></path><path stroke="#000000" stroke-width="3.0" stroke-linejoin="round" stroke-linecap="butt" d="m799.25616 574.6772l179.65356 0l0 179.6535l-179.65356 0z" fill-rule="nonzero"></path><path fill="#ffffff" d="m569.92285 574.6772l179.65356 0l0 179.6535l-179.65356 0z" fill-rule="nonzero"></path><path stroke="#000000" stroke-width="3.0" stroke-linejoin="round" stroke-linecap="butt" d="m569.92285 574.6772l179.65356 0l0 179.6535l-179.65356 0z" fill-rule="nonzero"></path><path fill="#cfe2f3" d="m592.8915 925.66144l0 0c0 -16.533752 13.403259 -29.937012 29.937012 -29.937012l0 0c7.9397583 0 15.554382 3.1540527 21.16864 8.768311c5.614258 5.614319 8.768311 13.228882 8.768311 21.168701l0 0c0 16.533752 -13.403198 29.937012 -29.93695 29.937012l0 0c-16.533752 0 -29.937012 -13.403259 -29.937012 -29.937012z" fill-rule="nonzero"></path><path stroke="#000000" stroke-width="3.0" stroke-linejoin="round" stroke-linecap="butt" d="m592.8915 925.66144l0 0c0 -16.533752 13.403259 -29.937012 29.937012 -29.937012l0 0c7.9397583 0 15.554382 3.1540527 21.16864 8.768311c5.614258 5.614319 8.768311 13.228882 8.768311 21.168701l0 0c0 16.533752 -13.403198 29.937012 -29.93695 29.937012l0 0c-16.533752 0 -29.937012 -13.403259 -29.937012 -29.937012z" fill-rule="nonzero"></path><path fill="#d9ead3" d="m812.8705 657.0236l34.614136 -59.874023l34.614197 59.874023z" fill-rule="nonzero"></path><path stroke="#000000" stroke-width="3.0" stroke-linejoin="round" stroke-linecap="butt" d="m812.8705 657.0236l34.614136 -59.874023l34.614197 59.874023z" fill-rule="nonzero"></path><path fill="#e6b8af" d="m588.2143 703.81104l34.614197 -34.614197l34.614136 34.614197l-34.614136 34.614136z" fill-rule="nonzero"></path><path stroke="#000000" stroke-width="3.0" stroke-linejoin="round" stroke-linecap="butt" d="m588.2143 703.81104l34.614197 -34.614197l34.614136 34.614197l-34.614136 34.614136z" fill-rule="nonzero"></path><path fill="#cfe2f3" d="m666.8101 848.937l0 0c0 -16.533752 13.403198 -29.937012 29.93695 -29.937012l0 0c7.9398193 0 15.554382 3.1540527 21.168701 8.768372c5.614258 5.614258 8.768311 13.228821 8.768311 21.16864l0 0c0 16.533752 -13.403259 29.937012 -29.937012 29.937012l0 0c-16.533752 0 -29.93695 -13.403259 -29.93695 -29.937012z" fill-rule="nonzero"></path><path stroke="#000000" stroke-width="3.0" stroke-linejoin="round" stroke-linecap="butt" d="m666.8101 848.937l0 0c0 -16.533752 13.403198 -29.937012 29.93695 -29.937012l0 0c7.9398193 0 15.554382 3.1540527 21.168701 8.768372c5.614258 5.614258 8.768311 13.228821 8.768311 21.16864l0 0c0 16.533752 -13.403259 29.937012 -29.937012 29.937012l0 0c-16.533752 0 -29.93695 -13.403259 -29.93695 -29.937012z" fill-rule="nonzero"></path><path fill="#d9ead3" d="m891.46625 657.0236l34.614197 -59.874023l34.614136 59.874023z" fill-rule="nonzero"></path><path stroke="#000000" stroke-width="3.0" stroke-linejoin="round" stroke-linecap="butt" d="m891.46625 657.0236l34.614197 -59.874023l34.614136 59.874023z" fill-rule="nonzero"></path><path fill="#e6b8af" d="m662.13293 627.0866l34.614136 -34.614197l34.614197 34.614197l-34.614197 34.614197z" fill-rule="nonzero"></path><path stroke="#000000" stroke-width="3.0" stroke-linejoin="round" stroke-linecap="butt" d="m662.13293 627.0866l34.614136 -34.614197l34.614197 34.614197l-34.614197 34.614197z" fill-rule="nonzero"></path><path fill="#cfe2f3" d="m592.8915 848.937l0 0c0 -16.533752 13.403259 -29.937012 29.937012 -29.937012l0 0c7.9397583 0 15.554382 3.1540527 21.16864 8.768372c5.614258 5.614258 8.768311 13.228821 8.768311 21.16864l0 0c0 16.533752 -13.403198 29.937012 -29.93695 29.937012l0 0c-16.533752 0 -29.937012 -13.403259 -29.937012 -29.937012z" fill-rule="nonzero"></path><path stroke="#000000" stroke-width="3.0" stroke-linejoin="round" stroke-linecap="butt" d="m592.8915 848.937l0 0c0 -16.533752 13.403259 -29.937012 29.937012 -29.937012l0 0c7.9397583 0 15.554382 3.1540527 21.16864 8.768372c5.614258 5.614258 8.768311 13.228821 8.768311 21.16864l0 0c0 16.533752 -13.403198 29.937012 -29.93695 29.937012l0 0c-16.533752 0 -29.937012 -13.403259 -29.937012 -29.937012z" fill-rule="nonzero"></path><path fill="#d9ead3" d="m812.8705 733.74805l34.614136 -59.874023l34.614197 59.874023z" fill-rule="nonzero"></path><path stroke="#000000" stroke-width="3.0" stroke-linejoin="round" stroke-linecap="butt" d="m812.8705 733.74805l34.614136 -59.874023l34.614197 59.874023z" fill-rule="nonzero"></path><path fill="#e6b8af" d="m588.2143 627.0866l34.614197 -34.614197l34.614136 34.614197l-34.614136 34.614197z" fill-rule="nonzero"></path><path stroke="#000000" stroke-width="3.0" stroke-linejoin="round" stroke-linecap="butt" d="m588.2143 627.0866l34.614197 -34.614197l34.614136 34.614197l-34.614136 34.614197z" fill-rule="nonzero"></path><path fill="#000000" fill-opacity="0.0" d="m749.5764 664.50397c12.420044 0 18.631409 0.01574707 24.840088 0.03149414c6.208679 0.01574707 12.414612 0.03149414 24.829163 0.03149414" fill-rule="nonzero"></path><path stroke="#000000" stroke-width="3.0" stroke-linejoin="round" stroke-linecap="butt" d="m749.5764 664.50397c12.420044 0 18.631409 0.01574707 24.840088 0.03149414c6.208679 0.01574707 12.414612 0.03149414 24.829163 0.03149414" fill-rule="nonzero"></path><path fill="#000000" fill-opacity="0.0" d="m659.74963 754.3307c0 10.549316 0.01574707 15.822998 0.03149414 21.098572c0.01574707 5.2755737 0.03149414 10.553101 0.03149414 21.106201" fill-rule="nonzero"></path><path stroke="#000000" stroke-width="3.0" stroke-linejoin="round" stroke-linecap="butt" d="m659.74963 754.3307c0 10.549316 0.01574707 15.822998 0.03149414 21.098572c0.01574707 5.2755737 0.03149414 10.553101 0.03149414 21.106201" fill-rule="nonzero"></path><path fill="#ffffff" d="m25.684946 803.7323l179.65353 0l0 179.6535l-179.65353 0z" fill-rule="nonzero"></path><path stroke="#000000" stroke-width="3.0" stroke-linejoin="round" stroke-linecap="butt" d="m25.684946 803.7323l179.65353 0l0 179.6535l-179.65353 0z" fill-rule="nonzero"></path><path fill="#ffffff" d="m255.01828 581.8819l179.65353 0l0 179.65356l-179.65353 0z" fill-rule="nonzero"></path><path stroke="#000000" stroke-width="3.0" stroke-linejoin="round" stroke-linecap="butt" d="m255.01828 581.8819l179.65353 0l0 179.65356l-179.65353 0z" fill-rule="nonzero"></path><path fill="#ffffff" d="m25.684946 581.8819l179.65353 0l0 179.65356l-179.65353 0z" fill-rule="nonzero"></path><path stroke="#000000" stroke-width="3.0" stroke-linejoin="round" stroke-linecap="butt" d="m25.684946 581.8819l179.65353 0l0 179.65356l-179.65353 0z" fill-rule="nonzero"></path><path fill="#cfe2f3" d="m48.65354 932.86615l0 0c0 -16.533752 13.403255 -29.937012 29.937012 -29.937012l0 0c7.939789 0 15.554382 3.1540527 21.168655 8.768372c5.6142807 5.614258 8.768349 13.228821 8.768349 21.16864l0 0c0 16.533752 -13.403252 29.937012 -29.937004 29.937012l0 0c-16.533756 0 -29.937012 -13.403259 -29.937012 -29.937012z" fill-rule="nonzero"></path><path stroke="#000000" stroke-width="3.0" stroke-linejoin="round" stroke-linecap="butt" d="m48.65354 932.86615l0 0c0 -16.533752 13.403255 -29.937012 29.937012 -29.937012l0 0c7.939789 0 15.554382 3.1540527 21.168655 8.768372c5.6142807 5.614258 8.768349 13.228821 8.768349 21.16864l0 0c0 16.533752 -13.403252 29.937012 -29.937004 29.937012l0 0c-16.533756 0 -29.937012 -13.403259 -29.937012 -29.937012z" fill-rule="nonzero"></path><path fill="#d9ead3" d="m347.22833 740.95276l34.614197 -59.874023l34.614166 59.874023z" fill-rule="nonzero"></path><path stroke="#000000" stroke-width="3.0" stroke-linejoin="round" stroke-linecap="butt" d="m347.22833 740.95276l34.614197 -59.874023l34.614166 59.874023z" fill-rule="nonzero"></path><path fill="#e6b8af" d="m43.97638 711.01575l34.614174 -34.614197l34.614174 34.614197l-34.614174 34.614197z" fill-rule="nonzero"></path><path stroke="#000000" stroke-width="3.0" stroke-linejoin="round" stroke-linecap="butt" d="m43.97638 711.01575l34.614174 -34.614197l34.614174 34.614197l-34.614174 34.614197z" fill-rule="nonzero"></path><path fill="#cfe2f3" d="m122.57218 856.1417l0 0c0 -16.533752 13.403252 -29.937012 29.937004 -29.937012l0 0c7.939789 0 15.554382 3.1540527 21.168655 8.768372c5.6142883 5.614258 8.768356 13.228882 8.768356 21.16864l0 0c0 16.533752 -13.403259 29.937012 -29.937012 29.937012l0 0c-16.533752 0 -29.937004 -13.403259 -29.937004 -29.937012z" fill-rule="nonzero"></path><path stroke="#000000" stroke-width="3.0" stroke-linejoin="round" stroke-linecap="butt" d="m122.57218 856.1417l0 0c0 -16.533752 13.403252 -29.937012 29.937004 -29.937012l0 0c7.939789 0 15.554382 3.1540527 21.168655 8.768372c5.6142883 5.614258 8.768356 13.228882 8.768356 21.16864l0 0c0 16.533752 -13.403259 29.937012 -29.937012 29.937012l0 0c-16.533752 0 -29.937004 -13.403259 -29.937004 -29.937012z" fill-rule="nonzero"></path><path fill="#d9ead3" d="m347.22833 664.22833l34.614197 -59.874023l34.614166 59.874023z" fill-rule="nonzero"></path><path stroke="#000000" stroke-width="3.0" stroke-linejoin="round" stroke-linecap="butt" d="m347.22833 664.22833l34.614197 -59.874023l34.614166 59.874023z" fill-rule="nonzero"></path><path fill="#e6b8af" d="m117.89501 634.2913l34.614174 -34.614136l34.614166 34.614136l-34.614166 34.614197z" fill-rule="nonzero"></path><path stroke="#000000" stroke-width="3.0" stroke-linejoin="round" stroke-linecap="butt" d="m117.89501 634.2913l34.614174 -34.614136l34.614166 34.614136l-34.614166 34.614197z" fill-rule="nonzero"></path><path fill="#cfe2f3" d="m48.65354 856.1417l0 0c0 -16.533752 13.403255 -29.937012 29.937012 -29.937012l0 0c7.939789 0 15.554382 3.1540527 21.168655 8.768372c5.6142807 5.614258 8.768349 13.228882 8.768349 21.16864l0 0c0 16.533752 -13.403252 29.937012 -29.937004 29.937012l0 0c-16.533756 0 -29.937012 -13.403259 -29.937012 -29.937012z" fill-rule="nonzero"></path><path stroke="#000000" stroke-width="3.0" stroke-linejoin="round" stroke-linecap="butt" d="m48.65354 856.1417l0 0c0 -16.533752 13.403255 -29.937012 29.937012 -29.937012l0 0c7.939789 0 15.554382 3.1540527 21.168655 8.768372c5.6142807 5.614258 8.768349 13.228882 8.768349 21.16864l0 0c0 16.533752 -13.403252 29.937012 -29.937004 29.937012l0 0c-16.533756 0 -29.937012 -13.403259 -29.937012 -29.937012z" fill-rule="nonzero"></path><path fill="#d9ead3" d="m268.63254 740.95276l34.614166 -59.874023l34.614197 59.874023z" fill-rule="nonzero"></path><path stroke="#000000" stroke-width="3.0" stroke-linejoin="round" stroke-linecap="butt" d="m268.63254 740.95276l34.614166 -59.874023l34.614197 59.874023z" fill-rule="nonzero"></path><path fill="#e6b8af" d="m43.97638 634.2913l34.614174 -34.614136l34.614174 34.614136l-34.614174 34.614197z" fill-rule="nonzero"></path><path stroke="#000000" stroke-width="3.0" stroke-linejoin="round" stroke-linecap="butt" d="m43.97638 634.2913l34.614174 -34.614136l34.614174 34.614136l-34.614174 34.614197z" fill-rule="nonzero"></path><path fill="#000000" fill-opacity="0.0" d="m78.59055 599.6772c0 -12.5 18.480316 -25.007874 36.960625 -25.0c18.480316 0.007873535 36.960632 12.531494 36.960632 25.062988" fill-rule="nonzero"></path><path stroke="#000000" stroke-width="3.0" stroke-linejoin="round" stroke-linecap="butt" d="m78.59055 599.6772c0 -12.5 18.480316 -25.007874 36.960625 -25.0c18.480316 0.007873535 36.960632 12.531494 36.960632 25.062988" fill-rule="nonzero"></path><path fill="#000000" fill-opacity="0.0" d="m43.97638 634.2913c-12.500002 0 -25.007875 19.181091 -25.000002 38.362244c0.007873535 19.181091 12.531496 38.362183 25.062994 38.362183" fill-rule="nonzero"></path><path stroke="#000000" stroke-width="3.0" stroke-linejoin="round" stroke-linecap="butt" d="m43.97638 634.2913c-12.500002 0 -25.007875 19.181091 -25.000002 38.362244c0.007873535 19.181091 12.531496 38.362183 25.062994 38.362183" fill-rule="nonzero"></path><path fill="#000000" fill-opacity="0.0" d="m416.4567 664.22833c0 23.401611 -8.661407 46.80316 -17.322845 46.80316" fill-rule="nonzero"></path><path stroke="#000000" stroke-width="3.0" stroke-linejoin="round" stroke-linecap="butt" d="m416.4567 664.22833c0 23.401611 -8.661407 46.80316 -17.322845 46.80316" fill-rule="nonzero"></path><path fill="#000000" fill-opacity="0.0" d="m364.53543 711.01575c-10.995422 0 -16.494781 0.01574707 -21.990845 0.03149414c-5.496063 0.01574707 -10.988831 0.03149414 -21.977661 0.03149414" fill-rule="nonzero"></path><path stroke="#000000" stroke-width="3.0" stroke-linejoin="round" stroke-linecap="butt" d="m364.53543 711.01575c-10.995422 0 -16.494781 0.01574707 -21.990845 0.03149414c-5.496063 0.01574707 -10.988831 0.03149414 -21.977661 0.03149414" fill-rule="nonzero"></path><path fill="#000000" fill-opacity="0.0" d="m78.59055 826.2047c0 -12.5 18.480316 -25.007874 36.960625 -25.0c18.480316 0.007873535 36.960632 12.531494 36.960632 25.062988" fill-rule="nonzero"></path><path stroke="#000000" stroke-width="3.0" stroke-linejoin="round" stroke-linecap="butt" d="m78.59055 826.2047c0 -12.5 18.480316 -25.007874 36.960625 -25.0c18.480316 0.007873535 36.960632 12.531494 36.960632 25.062988" fill-rule="nonzero"></path><path fill="#000000" fill-opacity="0.0" d="m48.65354 856.1417c-12.5 0 -25.007872 19.181091 -24.999998 38.362244c0.007873535 19.181091 12.531496 38.362183 25.06299 38.362183" fill-rule="nonzero"></path><path stroke="#000000" stroke-width="3.0" stroke-linejoin="round" stroke-linecap="butt" d="m48.65354 856.1417c-12.5 0 -25.007872 19.181091 -24.999998 38.362244c0.007873535 19.181091 12.531496 38.362183 25.06299 38.362183" fill-rule="nonzero"></path><path fill="#000000" fill-opacity="0.0" d="m152.50919 668.9055c0 39.325195 0.01574707 58.988953 0.03149414 78.65039c0.01574707 19.661438 0.03149414 39.320496 0.03149414 78.64093" fill-rule="nonzero"></path><path stroke="#000000" stroke-width="3.0" stroke-linejoin="round" stroke-linecap="butt" d="m152.50919 668.9055c0 39.325195 0.01574707 58.988953 0.03149414 78.65039c0.01574707 19.661438 0.03149414 39.320496 0.03149414 78.64093" fill-rule="nonzero"></path><path fill="#000000" fill-opacity="0.0" d="m285.93964 711.01575c-30.20015 0 -47.463303 36.283447 -60.4003 72.566956c-12.937012 36.283447 -21.547882 72.566895 -43.095764 72.566895" fill-rule="nonzero"></path><path stroke="#000000" stroke-width="3.0" stroke-linejoin="round" stroke-linecap="butt" d="m285.93964 711.01575c-30.20015 0 -47.463303 36.283447 -60.4003 72.566956c-12.937012 36.283447 -21.547882 72.566895 -43.095764 72.566895" fill-rule="nonzero"></path><path fill="#000000" fill-opacity="0.0" d="m113.20473 711.01575c19.653534 0 39.307083 57.590576 39.307083 115.18109" fill-rule="nonzero"></path><path stroke="#000000" stroke-width="3.0" stroke-linejoin="round" stroke-linecap="butt" d="m113.20473 711.01575c19.653534 0 39.307083 57.590576 39.307083 115.18109" fill-rule="nonzero"></path><path fill="#000000" fill-opacity="0.0" d="m381.84253 740.95276c0 57.590576 -99.700806 115.18109 -199.40158 115.18109" fill-rule="nonzero"></path><path stroke="#000000" stroke-width="3.0" stroke-linejoin="round" stroke-linecap="butt" d="m381.84253 740.95276c0 57.590576 -99.700806 115.18109 -199.40158 115.18109" fill-rule="nonzero"></path><path fill="#000000" fill-opacity="0.0" d="m622.8285 592.4724c0 -12.5 18.480286 -25.007874 36.960632 -25.0c18.480286 0.007873535 36.96057 12.531555 36.96057 25.06305" fill-rule="nonzero"></path><path stroke="#000000" stroke-width="3.0" stroke-linejoin="round" stroke-linecap="butt" d="m622.8285 592.4724c0 -12.5 18.480286 -25.007874 36.960632 -25.0c18.480286 0.007873535 36.96057 12.531555 36.96057 25.06305" fill-rule="nonzero"></path><path fill="#000000" fill-opacity="0.0" d="m588.2143 627.0866c-12.5 0 -25.007874 19.181091 -25.0 38.362183c0.007873535 19.181152 12.531494 38.362244 25.062988 38.362244" fill-rule="nonzero"></path><path stroke="#000000" stroke-width="3.0" stroke-linejoin="round" stroke-linecap="butt" d="m588.2143 627.0866c-12.5 0 -25.007874 19.181091 -25.0 38.362183c0.007873535 19.181152 12.531494 38.362244 25.062988 38.362244" fill-rule="nonzero"></path><path fill="#000000" fill-opacity="0.0" d="m908.7733 627.0866c-10.995422 0 -16.494751 0.01574707 -21.990845 0.03149414c-5.4960327 0.01574707 -10.988831 0.03149414 -21.9776 0.03149414" fill-rule="nonzero"></path><path stroke="#000000" stroke-width="3.0" stroke-linejoin="round" stroke-linecap="butt" d="m908.7733 627.0866c-10.995422 0 -16.494751 0.01574707 -21.990845 0.03149414c-5.4960327 0.01574707 -10.988831 0.03149414 -21.9776 0.03149414" fill-rule="nonzero"></path><path fill="#000000" fill-opacity="0.0" d="m830.17755 703.81104c-21.153564 0 -42.31494 -19.181091 -42.307068 -38.362244c0.007873535 -19.181091 21.184998 -38.362183 42.370056 -38.362183" fill-rule="nonzero"></path><path stroke="#000000" stroke-width="3.0" stroke-linejoin="round" stroke-linecap="butt" d="m830.17755 703.81104c-21.153564 0 -42.31494 -19.181091 -42.307068 -38.362244c0.007873535 -19.181091 21.184998 -38.362183 42.370056 -38.362183" fill-rule="nonzero"></path><path fill="#000000" fill-opacity="0.0" d="m622.8285 819.0c0 -12.5 18.480286 -25.007874 36.960632 -25.0c18.480286 0.007873535 36.96057 12.531494 36.96057 25.062988" fill-rule="nonzero"></path><path stroke="#000000" stroke-width="3.0" stroke-linejoin="round" stroke-linecap="butt" d="m622.8285 819.0c0 -12.5 18.480286 -25.007874 36.960632 -25.0c18.480286 0.007873535 36.96057 12.531494 36.96057 25.062988" fill-rule="nonzero"></path><path fill="#000000" fill-opacity="0.0" d="m592.8915 848.937c-12.5 0 -25.007874 19.181091 -25.0 38.362183c0.007873535 19.181091 12.531494 38.362244 25.062988 38.362244" fill-rule="nonzero"></path><path stroke="#000000" stroke-width="3.0" stroke-linejoin="round" stroke-linecap="butt" d="m592.8915 848.937c-12.5 0 -25.007874 19.181091 -25.0 38.362183c0.007873535 19.181091 12.531494 38.362244 25.062988 38.362244" fill-rule="nonzero"></path><path fill="#000000" fill-opacity="0.0" d="m632.8309 440.43964l273.6693 0l0 42.204712l-273.6693 0z" fill-rule="nonzero"></path><path fill="#000000" d="m681.8374 480.15964l-2.65625 0l0 -10.75l-12.03125 0l0 10.75l-2.65625 0l0 -22.84375l2.65625 0l0 9.71875l12.03125 0l0 -9.71875l2.65625 0l0 22.84375zm8.46875 0l-2.59375 0l0 -17.125l2.59375 0l0 17.125zm-2.8125 -21.765625q0 -0.890625 0.4375 -1.296875q0.4375 -0.421875 1.09375 -0.421875q0.625 0 1.078125 0.421875q0.453125 0.421875 0.453125 1.296875q0 0.875 -0.453125 1.3125q-0.453125 0.421875 -1.078125 0.421875q-0.65625 0 -1.09375 -0.421875q-0.4375 -0.4375 -0.4375 -1.3125zm22.328125 4.640625l0 1.640625l-3.171875 0.375q0.4375 0.546875 0.78125 1.4375q0.34375 0.875 0.34375 1.984375q0 2.515625 -1.71875 4.015625q-1.71875 1.5 -4.71875 1.5q-0.765625 0 -1.4375 -0.125q-1.65625 0.875 -1.65625 2.203125q0 0.703125 0.578125 1.046875q0.578125 0.328125 1.984375 0.328125l3.03125 0q2.78125 0 4.265625 1.171875q1.5 1.171875 1.5 3.40625q0 2.84375 -2.28125 4.328125q-2.28125 1.5 -6.65625 1.5q-3.359375 0 -5.1875 -1.25q-1.8125 -1.25 -1.8125 -3.53125q0 -1.5625 1.0 -2.703125q1.0 -1.140625 2.8125 -1.546875q-0.65625 -0.296875 -1.109375 -0.921875q-0.4375 -0.625 -0.4375 -1.453125q0 -0.9375 0.5 -1.640625q0.5 -0.703125 1.578125 -1.359375q-1.328125 -0.546875 -2.171875 -1.859375q-0.828125 -1.3125 -0.828125 -3.0q0 -2.8125 1.6875 -4.328125q1.6875 -1.53125 4.78125 -1.53125q1.34375 0 2.421875 0.3125l5.921875 0zm-13.65625 20.0q0 1.390625 1.171875 2.109375q1.171875 0.71875 3.359375 0.71875q3.265625 0 4.828125 -0.984375q1.578125 -0.96875 1.578125 -2.640625q0 -1.390625 -0.859375 -1.9375q-0.859375 -0.53125 -3.234375 -0.53125l-3.109375 0q-1.765625 0 -2.75 0.84375q-0.984375 0.84375 -0.984375 2.421875zm1.40625 -14.515625q0 1.796875 1.015625 2.71875q1.015625 0.921875 2.828125 0.921875q3.796875 0 3.796875 -3.6875q0 -3.859375 -3.84375 -3.859375q-1.828125 0 -2.8125 0.984375q-0.984375 0.984375 -0.984375 2.921875zm27.484375 11.640625l0 -11.078125q0 -2.09375 -0.953125 -3.125q-0.953125 -1.03125 -2.984375 -1.03125q-2.703125 0 -3.953125 1.46875q-1.234375 1.46875 -1.234375 4.8125l0 8.953125l-2.59375 0l0 -24.3125l2.59375 0l0 7.359375q0 1.328125 -0.125 2.203125l0.15625 0q0.765625 -1.234375 2.171875 -1.9375q1.421875 -0.71875 3.234375 -0.71875q3.140625 0 4.703125 1.5q1.578125 1.484375 1.578125 4.734375l0 11.171875l-2.59375 0zm26.40625 -20.796875q-3.765625 0 -5.953125 2.515625q-2.171875 2.5 -2.171875 6.859375q0 4.484375 2.09375 6.9375q2.109375 2.4375 6.0 2.4375q2.390625 0 5.453125 -0.859375l0 2.328125q-2.375 0.890625 -5.859375 0.890625q-5.046875 0 -7.796875 -3.0625q-2.734375 -3.0625 -2.734375 -8.703125q0 -3.53125 1.3125 -6.1875q1.328125 -2.65625 3.8125 -4.09375q2.5 -1.4375 5.875 -1.4375q3.59375 0 6.28125 1.3125l-1.125 2.28125q-2.59375 -1.21875 -5.1875 -1.21875zm24.796875 12.21875q0 4.1875 -2.109375 6.546875q-2.109375 2.34375 -5.828125 2.34375q-2.296875 0 -4.078125 -1.078125q-1.78125 -1.078125 -2.75 -3.09375q-0.96875 -2.015625 -0.96875 -4.71875q0 -4.1875 2.09375 -6.515625q2.09375 -2.34375 5.8125 -2.34375q3.59375 0 5.703125 2.390625q2.125 2.390625 2.125 6.46875zm-13.046875 0q0 3.28125 1.3125 5.0q1.3125 1.71875 3.859375 1.71875q2.546875 0 3.859375 -1.703125q1.328125 -1.71875 1.328125 -5.015625q0 -3.265625 -1.328125 -4.953125q-1.3125 -1.703125 -3.890625 -1.703125q-2.546875 0 -3.84375 1.671875q-1.296875 1.671875 -1.296875 4.984375zm29.3125 8.578125l0 -11.078125q0 -2.09375 -0.953125 -3.125q-0.953125 -1.03125 -2.984375 -1.03125q-2.703125 0 -3.953125 1.46875q-1.234375 1.46875 -1.234375 4.8125l0 8.953125l-2.59375 0l0 -24.3125l2.59375 0l0 7.359375q0 1.328125 -0.125 2.203125l0.15625 0q0.765625 -1.234375 2.171875 -1.9375q1.421875 -0.71875 3.234375 -0.71875q3.140625 0 4.703125 1.5q1.578125 1.484375 1.578125 4.734375l0 11.171875l-2.59375 0zm15.15625 0.3125q-3.796875 0 -6.0 -2.3125q-2.1875 -2.3125 -2.1875 -6.421875q0 -4.140625 2.03125 -6.578125q2.046875 -2.4375 5.484375 -2.4375q3.21875 0 5.09375 2.125q1.875 2.109375 1.875 5.578125l0 1.640625l-11.796875 0q0.078125 3.015625 1.515625 4.578125q1.453125 1.5625 4.078125 1.5625q2.765625 0 5.46875 -1.15625l0 2.3125q-1.375 0.59375 -2.609375 0.84375q-1.21875 0.265625 -2.953125 0.265625zm-0.703125 -15.578125q-2.0625 0 -3.296875 1.34375q-1.21875 1.34375 -1.4375 3.71875l8.953125 0q0 -2.453125 -1.09375 -3.75q-1.09375 -1.3125 -3.125 -1.3125zm22.46875 10.59375q0 2.390625 -1.78125 3.6875q-1.78125 1.296875 -5.0 1.296875q-3.40625 0 -5.3125 -1.078125l0 -2.40625q1.234375 0.625 2.640625 0.984375q1.421875 0.359375 2.734375 0.359375q2.03125 0 3.125 -0.640625q1.09375 -0.65625 1.09375 -1.984375q0 -1.0 -0.875 -1.703125q-0.859375 -0.71875 -3.375 -1.6875q-2.390625 -0.890625 -3.40625 -1.546875q-1.0 -0.671875 -1.5 -1.515625q-0.484375 -0.84375 -0.484375 -2.015625q0 -2.09375 1.703125 -3.296875q1.703125 -1.21875 4.671875 -1.21875q2.765625 0 5.40625 1.125l-0.921875 2.109375q-2.578125 -1.0625 -4.671875 -1.0625q-1.84375 0 -2.78125 0.578125q-0.9375 0.578125 -0.9375 1.59375q0 0.6875 0.34375 1.171875q0.359375 0.484375 1.140625 0.921875q0.78125 0.4375 3.0 1.265625q3.046875 1.109375 4.109375 2.234375q1.078125 1.125 1.078125 2.828125zm6.8125 4.671875l-2.59375 0l0 -17.125l2.59375 0l0 17.125zm-2.8125 -21.765625q0 -0.890625 0.4375 -1.296875q0.4375 -0.421875 1.09375 -0.421875q0.625 0 1.078125 0.421875q0.453125 0.421875 0.453125 1.296875q0 0.875 -0.453125 1.3125q-0.453125 0.421875 -1.078125 0.421875q-0.65625 0 -1.09375 -0.421875q-0.4375 -0.4375 -0.4375 -1.3125zm23.09375 13.1875q0 4.1875 -2.109375 6.546875q-2.109375 2.34375 -5.828125 2.34375q-2.296875 0 -4.078125 -1.078125q-1.78125 -1.078125 -2.75 -3.09375q-0.96875 -2.015625 -0.96875 -4.71875q0 -4.1875 2.09375 -6.515625q2.09375 -2.34375 5.8125 -2.34375q3.59375 0 5.703125 2.390625q2.125 2.390625 2.125 6.46875zm-13.046875 0q0 3.28125 1.3125 5.0q1.3125 1.71875 3.859375 1.71875q2.546875 0 3.859375 -1.703125q1.328125 -1.71875 1.328125 -5.015625q0 -3.265625 -1.328125 -4.953125q-1.3125 -1.703125 -3.890625 -1.703125q-2.546875 0 -3.84375 1.671875q-1.296875 1.671875 -1.296875 4.984375zm29.3125 8.578125l0 -11.078125q0 -2.09375 -0.953125 -3.125q-0.953125 -1.03125 -2.984375 -1.03125q-2.6875 0 -3.9375 1.453125q-1.25 1.453125 -1.25 4.796875l0 8.984375l-2.59375 0l0 -17.125l2.109375 0l0.421875 2.34375l0.125 0q0.796875 -1.265625 2.234375 -1.953125q1.4375 -0.703125 3.203125 -0.703125q3.09375 0 4.65625 1.5q1.5625 1.484375 1.5625 4.765625l0 11.171875l-2.59375 0z" fill-rule="nonzero"></path><path fill="#000000" fill-opacity="0.0" d="m97.35696 441.7034l273.66928 0l0 42.204742l-273.66928 0z" fill-rule="nonzero"></path><path fill="#000000" d="m133.04317 481.4234l0 -22.84375l2.65625 0l0 20.4375l10.078125 0l0 2.40625l-12.734375 0zm31.0 -8.578125q0 4.1875 -2.109375 6.546875q-2.109375 2.34375 -5.828125 2.34375q-2.296875 0 -4.078125 -1.078125q-1.78125 -1.078125 -2.75 -3.09375q-0.96875 -2.015625 -0.96875 -4.71875q0 -4.1875 2.09375 -6.515625q2.09375 -2.34375 5.8125 -2.34375q3.59375 0 5.703125 2.390625q2.125 2.390625 2.125 6.46875zm-13.046875 0q0 3.28125 1.3125 5.0q1.3125 1.71875 3.859375 1.71875q2.546875 0 3.859375 -1.703125q1.328125 -1.71875 1.328125 -5.015625q0 -3.265625 -1.328125 -4.953125q-1.3125 -1.703125 -3.890625 -1.703125q-2.546875 0 -3.84375 1.671875q-1.296875 1.671875 -1.296875 4.984375zm31.578125 8.578125l-3.140625 -10.046875q-0.296875 -0.921875 -1.109375 -4.1875l-0.125 0q-0.625 2.734375 -1.09375 4.21875l-3.234375 10.015625l-3.0 0l-4.671875 -17.125l2.71875 0q1.65625 6.453125 2.515625 9.828125q0.875 3.375 1.0 4.546875l0.125 0q0.171875 -0.890625 0.546875 -2.296875q0.390625 -1.421875 0.671875 -2.25l3.140625 -9.828125l2.8125 0l3.0625 9.828125q0.875 2.6875 1.1875 4.515625l0.125 0q0.0625 -0.5625 0.328125 -1.734375q0.28125 -1.171875 3.265625 -12.609375l2.6875 0l-4.734375 17.125l-3.078125 0zm29.390625 -20.796875q-3.765625 0 -5.953125 2.515625q-2.171875 2.5 -2.171875 6.859375q0 4.484375 2.09375 6.9375q2.109375 2.4375 6.0 2.4375q2.390625 0 5.453125 -0.859375l0 2.328125q-2.375 0.890625 -5.859375 0.890625q-5.046875 0 -7.796875 -3.0625q-2.734375 -3.0625 -2.734375 -8.703125q0 -3.53125 1.3125 -6.1875q1.328125 -2.65625 3.8125 -4.09375q2.5 -1.4375 5.875 -1.4375q3.59375 0 6.28125 1.3125l-1.125 2.28125q-2.59375 -1.21875 -5.1875 -1.21875zm24.796875 12.21875q0 4.1875 -2.109375 6.546875q-2.109375 2.34375 -5.828125 2.34375q-2.296875 0 -4.078125 -1.078125q-1.78125 -1.078125 -2.75 -3.09375q-0.96875 -2.015625 -0.96875 -4.71875q0 -4.1875 2.09375 -6.515625q2.09375 -2.34375 5.8125 -2.34375q3.59375 0 5.703125 2.390625q2.125 2.390625 2.125 6.46875zm-13.046875 0q0 3.28125 1.3125 5.0q1.3125 1.71875 3.859375 1.71875q2.546875 0 3.859375 -1.703125q1.328125 -1.71875 1.328125 -5.015625q0 -3.265625 -1.328125 -4.953125q-1.3125 -1.703125 -3.890625 -1.703125q-2.546875 0 -3.84375 1.671875q-1.296875 1.671875 -1.296875 4.984375zm29.3125 8.578125l0 -11.078125q0 -2.09375 -0.953125 -3.125q-0.953125 -1.03125 -2.984375 -1.03125q-2.703125 0 -3.953125 1.46875q-1.234375 1.46875 -1.234375 4.8125l0 8.953125l-2.59375 0l0 -24.3125l2.59375 0l0 7.359375q0 1.328125 -0.125 2.203125l0.15625 0q0.765625 -1.234375 2.171875 -1.9375q1.421875 -0.71875 3.234375 -0.71875q3.140625 0 4.703125 1.5q1.578125 1.484375 1.578125 4.734375l0 11.171875l-2.59375 0zm15.156265 0.3125q-3.796875 0 -6.0 -2.3125q-2.1875 -2.3125 -2.1875 -6.421875q0 -4.140625 2.03125 -6.578125q2.046875 -2.4375 5.484375 -2.4375q3.21875 0 5.09375 2.125q1.875 2.109375 1.875 5.578125l0 1.640625l-11.796875 0q0.078125 3.015625 1.515625 4.578125q1.453125 1.5625 4.078125 1.5625q2.765625 0 5.46875 -1.15625l0 2.3125q-1.375 0.59375 -2.609375 0.84375q-1.21875 0.265625 -2.953125 0.265625zm-0.703125 -15.578125q-2.0625 0 -3.296875 1.34375q-1.21875 1.34375 -1.4375 3.71875l8.953125 0q0 -2.453125 -1.09375 -3.75q-1.09375 -1.3125 -3.125 -1.3125zm22.46875 10.59375q0 2.390625 -1.78125 3.6875q-1.78125 1.296875 -5.0 1.296875q-3.40625 0 -5.3125 -1.078125l0 -2.40625q1.234375 0.625 2.640625 0.984375q1.421875 0.359375 2.734375 0.359375q2.03125 0 3.125 -0.640625q1.09375 -0.65625 1.09375 -1.984375q0 -1.0 -0.875 -1.703125q-0.859375 -0.71875 -3.375 -1.6875q-2.390625 -0.890625 -3.40625 -1.546875q-1.0 -0.671875 -1.5 -1.515625q-0.484375 -0.84375 -0.484375 -2.015625q0 -2.09375 1.703125 -3.296875q1.703125 -1.21875 4.671875 -1.21875q2.765625 0 5.40625 1.125l-0.921875 2.109375q-2.578125 -1.0625 -4.671875 -1.0625q-1.84375 0 -2.78125 0.578125q-0.9375 0.578125 -0.9375 1.59375q0 0.6875 0.34375 1.171875q0.359375 0.484375 1.140625 0.921875q0.78125 0.4375 3.0 1.265625q3.046875 1.109375 4.109375 2.234375q1.078125 1.125 1.078125 2.828125zm6.8125 4.671875l-2.59375 0l0 -17.125l2.59375 0l0 17.125zm-2.8125 -21.765625q0 -0.890625 0.4375 -1.296875q0.4375 -0.421875 1.09375 -0.421875q0.625 0 1.078125 0.421875q0.453125 0.421875 0.453125 1.296875q0 0.875 -0.453125 1.3125q-0.453125 0.421875 -1.078125 0.421875q-0.65625 0 -1.09375 -0.421875q-0.4375 -0.4375 -0.4375 -1.3125zm23.09375 13.1875q0 4.1875 -2.109375 6.546875q-2.109375 2.34375 -5.828125 2.34375q-2.296875 0 -4.078125 -1.078125q-1.78125 -1.078125 -2.75 -3.09375q-0.96875 -2.015625 -0.96875 -4.71875q0 -4.1875 2.09375 -6.515625q2.09375 -2.34375 5.8125 -2.34375q3.59375 0 5.703125 2.390625q2.125 2.390625 2.125 6.46875zm-13.046875 0q0 3.28125 1.3125 5.0q1.3125 1.71875 3.859375 1.71875q2.546875 0 3.859375 -1.703125q1.328125 -1.71875 1.328125 -5.015625q0 -3.265625 -1.328125 -4.953125q-1.3125 -1.703125 -3.890625 -1.703125q-2.546875 0 -3.84375 1.671875q-1.296875 1.671875 -1.296875 4.984375zm29.3125 8.578125l0 -11.078125q0 -2.09375 -0.953125 -3.125q-0.953125 -1.03125 -2.984375 -1.03125q-2.6875 0 -3.9375 1.453125q-1.25 1.453125 -1.25 4.796875l0 8.984375l-2.59375 0l0 -17.125l2.109375 0l0.421875 2.34375l0.125 0q0.796875 -1.265625 2.234375 -1.953125q1.4375 -0.703125 3.203125 -0.703125q3.09375 0 4.65625 1.5q1.5625 1.484375 1.5625 4.765625l0 11.171875l-2.59375 0z" fill-rule="nonzero"></path><path fill="#000000" fill-opacity="0.0" d="m633.3873 982.94806l273.66925 0l0 42.20465l-273.66925 0z" fill-rule="nonzero"></path><path fill="#000000" d="m658.9017 1022.668l0 -22.84375l2.65625 0l0 20.4375l10.078125 0l0 2.40625l-12.734375 0zm31.0 -8.578125q0 4.1875 -2.109375 6.546875q-2.109375 2.34375 -5.828125 2.34375q-2.296875 0 -4.078125 -1.078125q-1.78125 -1.078125 -2.75 -3.09375q-0.96875 -2.015625 -0.96875 -4.71875q0 -4.1875 2.09375 -6.515625q2.09375 -2.34375 5.8125 -2.34375q3.59375 0 5.703125 2.390625q2.125 2.390625 2.125 6.46875zm-13.046875 0q0 3.28125 1.3125 5.0q1.3125 1.71875 3.859375 1.71875q2.546875 0 3.859375 -1.703125q1.328125 -1.71875 1.328125 -5.015625q0 -3.265625 -1.328125 -4.953125q-1.3125 -1.703125 -3.890625 -1.703125q-2.546875 0 -3.84375 1.671875q-1.296875 1.671875 -1.296875 4.984375zm32.375 0q0 4.1875 -2.109375 6.546875q-2.109375 2.34375 -5.828125 2.34375q-2.296875 0 -4.078125 -1.078125q-1.78125 -1.078125 -2.75 -3.09375q-0.96875 -2.015625 -0.96875 -4.71875q0 -4.1875 2.09375 -6.515625q2.09375 -2.34375 5.8125 -2.34375q3.59375 0 5.703125 2.390625q2.125 2.390625 2.125 6.46875zm-13.046875 0q0 3.28125 1.3125 5.0q1.3125 1.71875 3.859375 1.71875q2.546875 0 3.859375 -1.703125q1.328125 -1.71875 1.328125 -5.015625q0 -3.265625 -1.328125 -4.953125q-1.3125 -1.703125 -3.890625 -1.703125q-2.546875 0 -3.84375 1.671875q-1.296875 1.671875 -1.296875 4.984375zm28.640625 3.90625q0 2.390625 -1.78125 3.6875q-1.78125 1.296875 -5.0 1.296875q-3.40625 0 -5.3125 -1.078125l0 -2.40625q1.234375 0.625 2.640625 0.984375q1.421875 0.359375 2.734375 0.359375q2.03125 0 3.125 -0.640625q1.09375 -0.65625 1.09375 -1.984375q0 -1.0 -0.875 -1.703125q-0.859375 -0.71875 -3.375 -1.6875q-2.390625 -0.890625 -3.40625 -1.546875q-1.0 -0.671875 -1.5 -1.515625q-0.484375 -0.84375 -0.484375 -2.015625q0 -2.09375 1.703125 -3.296875q1.703125 -1.21875 4.671875 -1.21875q2.765625 0 5.40625 1.125l-0.921875 2.109375q-2.578125 -1.0625 -4.671875 -1.0625q-1.84375 0 -2.78125 0.578125q-0.9375 0.578125 -0.9375 1.59375q0 0.6875 0.34375 1.171875q0.359375 0.484375 1.140625 0.921875q0.78125 0.4375 3.0 1.265625q3.046875 1.109375 4.109375 2.234375q1.078125 1.125 1.078125 2.828125zm11.453125 4.984375q-3.796875 0 -6.0 -2.3125q-2.1875 -2.3125 -2.1875 -6.421875q0 -4.140625 2.03125 -6.578125q2.046875 -2.4375 5.484375 -2.4375q3.21875 0 5.09375 2.125q1.875 2.109375 1.875 5.578125l0 1.640625l-11.796875 0q0.078125 3.015625 1.515625 4.578125q1.453125 1.5625 4.078125 1.5625q2.765625 0 5.46875 -1.15625l0 2.3125q-1.375 0.59375 -2.609375 0.84375q-1.21875 0.265625 -2.953125 0.265625zm-0.703125 -15.578125q-2.0625 0 -3.296875 1.34375q-1.21875 1.34375 -1.4375 3.71875l8.953125 0q0 -2.453125 -1.09375 -3.75q-1.09375 -1.3125 -3.125 -1.3125zm29.90625 -5.53125q-3.765625 0 -5.953125 2.515625q-2.171875 2.5 -2.171875 6.859375q0 4.484375 2.09375 6.9375q2.109375 2.4375 6.0 2.4375q2.390625 0 5.453125 -0.859375l0 2.328125q-2.375 0.890625 -5.859375 0.890625q-5.046875 0 -7.796875 -3.0625q-2.734375 -3.0625 -2.734375 -8.703125q0 -3.53125 1.3125 -6.1875q1.328125 -2.65625 3.8125 -4.09375q2.5 -1.4375 5.875 -1.4375q3.59375 0 6.28125 1.3125l-1.125 2.28125q-2.59375 -1.21875 -5.1875 -1.21875zm24.796875 12.21875q0 4.1875 -2.109375 6.546875q-2.109375 2.34375 -5.828125 2.34375q-2.296875 0 -4.078125 -1.078125q-1.78125 -1.078125 -2.75 -3.09375q-0.96875 -2.015625 -0.96875 -4.71875q0 -4.1875 2.09375 -6.515625q2.09375 -2.34375 5.8125 -2.34375q3.59375 0 5.703125 2.390625q2.125 2.390625 2.125 6.46875zm-13.046875 0q0 3.28125 1.3125 5.0q1.3125 1.71875 3.859375 1.71875q2.546875 0 3.859375 -1.703125q1.328125 -1.71875 1.328125 -5.015625q0 -3.265625 -1.328125 -4.953125q-1.3125 -1.703125 -3.890625 -1.703125q-2.546875 0 -3.84375 1.671875q-1.296875 1.671875 -1.296875 4.984375zm20.03125 -8.546875l0 11.109375q0 2.09375 0.953125 3.125q0.953125 1.03125 2.984375 1.03125q2.6875 0 3.921875 -1.46875q1.25 -1.46875 1.25 -4.796875l0 -9.0l2.59375 0l0 17.125l-2.140625 0l-0.375 -2.296875l-0.140625 0q-0.796875 1.265625 -2.21875 1.9375q-1.40625 0.671875 -3.21875 0.671875q-3.125 0 -4.6875 -1.484375q-1.546875 -1.484375 -1.546875 -4.75l0 -11.203125l2.625 0zm25.171875 17.4375q-1.671875 0 -3.0625 -0.609375q-1.375 -0.625 -2.3125 -1.90625l-0.1875 0q0.1875 1.5 0.1875 2.84375l0 7.046936l-2.59375 0l0 -24.812561l2.109375 0l0.359375 2.34375l0.125 0q1.0 -1.40625 2.328125 -2.03125q1.328125 -0.625 3.046875 -0.625q3.40625 0 5.25 2.328125q1.859375 2.328125 1.859375 6.53125q0 4.21875 -1.890625 6.5625q-1.875 2.328125 -5.21875 2.328125zm-0.375 -15.546875q-2.625 0 -3.796875 1.453125q-1.171875 1.453125 -1.203125 4.625l0 0.578125q0 3.609375 1.203125 5.171875q1.203125 1.546875 3.859375 1.546875q2.21875 0 3.46875 -1.796875q1.265625 -1.796875 1.265625 -4.953125q0 -3.203125 -1.265625 -4.90625q-1.25 -1.71875 -3.53125 -1.71875zm14.609375 15.234375l-2.59375 0l0 -24.3125l2.59375 0l0 24.3125zm8.09375 0l-2.59375 0l0 -17.125l2.59375 0l0 17.125zm-2.8125 -21.765625q0 -0.890625 0.4375 -1.296875q0.4375 -0.421875 1.09375 -0.421875q0.625 0 1.078125 0.421875q0.453125 0.421875 0.453125 1.296875q0 0.875 -0.453125 1.3125q-0.453125 0.421875 -1.078125 0.421875q-0.65625 0 -1.09375 -0.421875q-0.4375 -0.4375 -0.4375 -1.3125zm20.03125 21.765625l0 -11.078125q0 -2.09375 -0.953125 -3.125q-0.953125 -1.03125 -2.984375 -1.03125q-2.6875 0 -3.9375 1.453125q-1.25 1.453125 -1.25 4.796875l0 8.984375l-2.59375 0l0 -17.125l2.109375 0l0.421875 2.34375l0.125 0q0.796875 -1.265625 2.234375 -1.953125q1.4375 -0.703125 3.203125 -0.703125q3.09375 0 4.65625 1.5q1.5625 1.484375 1.5625 4.765625l0 11.171875l-2.59375 0zm21.9375 -17.125l0 1.640625l-3.171875 0.375q0.4375 0.546875 0.78125 1.4375q0.34375 0.875 0.34375 1.984375q0 2.515625 -1.71875 4.015625q-1.71875 1.5 -4.71875 1.5q-0.765625 0 -1.4375 -0.125q-1.65625 0.875 -1.65625 2.203125q0 0.703125 0.578125 1.046875q0.578125 0.328125 1.984375 0.328125l3.03125 0q2.78125 0 4.265625 1.171875q1.5 1.171875 1.5 3.406311q0 2.84375 -2.28125 4.328125q-2.28125 1.5 -6.65625 1.5q-3.359375 0 -5.1875 -1.25q-1.8125 -1.25 -1.8125 -3.53125q0 -1.5625 1.0 -2.703186q1.0 -1.140625 2.8125 -1.546875q-0.65625 -0.296875 -1.109375 -0.921875q-0.4375 -0.625 -0.4375 -1.453125q0 -0.9375 0.5 -1.640625q0.5 -0.703125 1.578125 -1.359375q-1.328125 -0.546875 -2.171875 -1.859375q-0.828125 -1.3125 -0.828125 -3.0q0 -2.8125 1.6875 -4.328125q1.6875 -1.53125 4.78125 -1.53125q1.34375 0 2.421875 0.3125l5.921875 0zm-13.65625 20.000061q0 1.390625 1.171875 2.109375q1.171875 0.71875 3.359375 0.71875q3.265625 0 4.828125 -0.984375q1.578125 -0.96875 1.578125 -2.640625q0 -1.390686 -0.859375 -1.937561q-0.859375 -0.53125 -3.234375 -0.53125l-3.109375 0q-1.765625 0 -2.75 0.84375q-0.984375 0.84375 -0.984375 2.421936zm1.40625 -14.515686q0 1.796875 1.015625 2.71875q1.015625 0.921875 2.828125 0.921875q3.796875 0 3.796875 -3.6875q0 -3.859375 -3.84375 -3.859375q-1.828125 0 -2.8125 0.984375q-0.984375 0.984375 -0.984375 2.921875z" fill-rule="nonzero"></path><path fill="#000000" fill-opacity="0.0" d="m90.86614 988.92834l273.66928 0l0 42.204712l-273.66928 0z" fill-rule="nonzero"></path><path fill="#000000" d="m130.5211 1028.6483l-2.65625 0l0 -20.484314l-7.234375 0l0 -2.359375l17.125 0l0 2.359375l-7.234375 0l0 20.484314zm12.875 0l-2.59375 0l0 -17.124939l2.59375 0l0 17.124939zm-2.8125 -21.765564q0 -0.890625 0.4375 -1.296875q0.4375 -0.421875 1.09375 -0.421875q0.625 0 1.078125 0.421875q0.453125 0.421875 0.453125 1.296875q0 0.875 -0.453125 1.3125q-0.453125 0.421875 -1.078125 0.421875q-0.65625 0 -1.09375 -0.421875q-0.4375 -0.4375 -0.4375 -1.3125zm22.328125 4.640625l0 1.640625l-3.171875 0.375q0.4375 0.546875 0.78125 1.4375q0.34375 0.875 0.34375 1.984375q0 2.515625 -1.71875 4.015625q-1.71875 1.5 -4.71875 1.5q-0.765625 0 -1.4375 -0.125q-1.65625 0.875 -1.65625 2.203064q0 0.703125 0.578125 1.046875q0.578125 0.328125 1.984375 0.328125l3.03125 0q2.78125 0 4.265625 1.171875q1.5 1.171875 1.5 3.40625q0 2.84375 -2.28125 4.328125q-2.28125 1.5 -6.65625 1.5q-3.359375 0 -5.1875 -1.25q-1.8125 -1.25 -1.8125 -3.53125q0 -1.5625 1.0 -2.703125q1.0 -1.140625 2.8125 -1.546875q-0.65625 -0.296875 -1.109375 -0.921875q-0.4375 -0.625 -0.4375 -1.453125q0 -0.93743896 0.5 -1.640564q0.5 -0.703125 1.578125 -1.359375q-1.328125 -0.546875 -2.171875 -1.859375q-0.828125 -1.3125 -0.828125 -3.0q0 -2.8125 1.6875 -4.328125q1.6875 -1.53125 4.78125 -1.53125q1.34375 0 2.421875 0.3125l5.921875 0zm-13.65625 19.999939q0 1.390625 1.171875 2.109375q1.171875 0.71875 3.359375 0.71875q3.265625 0 4.828125 -0.984375q1.578125 -0.96875 1.578125 -2.640625q0 -1.390625 -0.859375 -1.9375q-0.859375 -0.53125 -3.234375 -0.53125l-3.109375 0q-1.765625 0 -2.75 0.84375q-0.984375 0.84375 -0.984375 2.421875zm1.40625 -14.515564q0 1.796875 1.015625 2.71875q1.015625 0.921875 2.828125 0.921875q3.796875 0 3.796875 -3.6875q0 -3.859375 -3.84375 -3.859375q-1.828125 0 -2.8125 0.984375q-0.984375 0.984375 -0.984375 2.921875zm27.484375 11.640564l0 -11.078064q0 -2.09375 -0.953125 -3.125q-0.953125 -1.03125 -2.984375 -1.03125q-2.703125 0 -3.953125 1.46875q-1.234375 1.46875 -1.234375 4.8125l0 8.953064l-2.59375 0l0 -24.312439l2.59375 0l0 7.359375q0 1.328125 -0.125 2.203125l0.15625 0q0.765625 -1.234375 2.171875 -1.9375q1.421875 -0.71875 3.234375 -0.71875q3.140625 0 4.703125 1.5q1.578125 1.484375 1.578125 4.734375l0 11.171814l-2.59375 0zm13.453125 -1.828125q0.6875 0 1.328125 -0.09375q0.640625 -0.109375 1.015625 -0.21875l0 1.984375q-0.421875 0.203125 -1.25 0.328125q-0.8125 0.140625 -1.46875 0.140625q-4.96875 0 -4.96875 -5.234314l0 -10.1875l-2.453125 0l0 -1.25l2.453125 -1.078125l1.09375 -3.65625l1.5 0l0 3.96875l4.96875 0l0 2.015625l-4.96875 0l0 10.078125q0 1.546814 0.734375 2.374939q0.734375 0.828125 2.015625 0.828125zm24.25 -18.968689q-3.765625 0 -5.953125 2.515625q-2.171875 2.5 -2.171875 6.859375q0 4.484375 2.09375 6.937439q2.109375 2.4375 6.0 2.4375q2.390625 0 5.453125 -0.859375l0 2.328125q-2.375 0.890625 -5.859375 0.890625q-5.046875 0 -7.796875 -3.0625q-2.734375 -3.062439 -2.734375 -8.703064q0 -3.53125 1.3125 -6.1875q1.328125 -2.65625 3.8125 -4.09375q2.5 -1.4375 5.875 -1.4375q3.59375 0 6.28125 1.3125l-1.125 2.28125q-2.59375 -1.21875 -5.1875 -1.21875zm24.796875 12.21875q0 4.187439 -2.109375 6.546814q-2.109375 2.34375 -5.828125 2.34375q-2.296875 0 -4.078125 -1.078125q-1.78125 -1.078125 -2.75 -3.09375q-0.96875 -2.015564 -0.96875 -4.718689q0 -4.1875 2.09375 -6.515625q2.09375 -2.34375 5.8125 -2.34375q3.59375 0 5.703125 2.390625q2.125 2.390625 2.125 6.46875zm-13.046875 0q0 3.28125 1.3125 4.999939q1.3125 1.71875 3.859375 1.71875q2.546875 0 3.859375 -1.703125q1.328125 -1.718689 1.328125 -5.015564q0 -3.265625 -1.328125 -4.953125q-1.3125 -1.703125 -3.890625 -1.703125q-2.546875 0 -3.84375 1.671875q-1.296875 1.671875 -1.296875 4.984375zm20.03125 -8.546875l0 11.109375q0 2.093689 0.953125 3.124939q0.953125 1.03125 2.984375 1.03125q2.6875 0 3.921875 -1.46875q1.2500153 -1.468689 1.2500153 -4.796814l0 -9.0l2.59375 0l0 17.124939l-2.140625 0l-0.375 -2.296875l-0.140625 0q-0.79689026 1.265625 -2.2187653 1.9375q-1.40625 0.671875 -3.21875 0.671875q-3.125 0 -4.6875 -1.484375q-1.546875 -1.484375 -1.546875 -4.749939l0 -11.203125l2.625 0zm25.17189 17.437439q-1.671875 0 -3.0625 -0.609375q-1.375 -0.625 -2.3125 -1.90625l-0.1875 0q0.1875 1.5 0.1875 2.84375l0 7.046875l-2.59375 0l0 -24.812439l2.109375 0l0.359375 2.34375l0.125 0q1.0 -1.40625 2.328125 -2.03125q1.328125 -0.625 3.046875 -0.625q3.40625 0 5.25 2.328125q1.859375 2.328125 1.859375 6.53125q0 4.218689 -1.890625 6.562439q-1.875 2.328125 -5.21875 2.328125zm-0.375 -15.546814q-2.625 0 -3.796875 1.453125q-1.171875 1.453125 -1.203125 4.625l0 0.578125q0 3.609375 1.203125 5.171814q1.203125 1.546875 3.859375 1.546875q2.21875 0 3.46875 -1.796875q1.265625 -1.796814 1.265625 -4.953064q0 -3.203125 -1.265625 -4.90625q-1.25 -1.71875 -3.53125 -1.71875zm14.609375 15.234314l-2.59375 0l0 -24.312439l2.59375 0l0 24.312439zm8.09375 0l-2.59375 0l0 -17.124939l2.59375 0l0 17.124939zm-2.8125 -21.765564q0 -0.890625 0.4375 -1.296875q0.4375 -0.421875 1.09375 -0.421875q0.625 0 1.078125 0.421875q0.453125 0.421875 0.453125 1.296875q0 0.875 -0.453125 1.3125q-0.453125 0.421875 -1.078125 0.421875q-0.65625 0 -1.09375 -0.421875q-0.4375 -0.4375 -0.4375 -1.3125zm20.03125 21.765564l0 -11.078064q0 -2.09375 -0.953125 -3.125q-0.953125 -1.03125 -2.984375 -1.03125q-2.6875 0 -3.9375 1.453125q-1.25 1.453125 -1.25 4.796875l0 8.984314l-2.59375 0l0 -17.124939l2.109375 0l0.421875 2.34375l0.125 0q0.796875 -1.265625 2.234375 -1.953125q1.4375 -0.703125 3.203125 -0.703125q3.09375 0 4.65625 1.5q1.5625 1.484375 1.5625 4.765625l0 11.171814l-2.59375 0zm21.9375 -17.124939l0 1.640625l-3.171875 0.375q0.4375 0.546875 0.78125 1.4375q0.34375 0.875 0.34375 1.984375q0 2.515625 -1.71875 4.015625q-1.71875 1.5 -4.71875 1.5q-0.765625 0 -1.4375 -0.125q-1.65625 0.875 -1.65625 2.203064q0 0.703125 0.578125 1.046875q0.578125 0.328125 1.984375 0.328125l3.03125 0q2.78125 0 4.265625 1.171875q1.5 1.171875 1.5 3.40625q0 2.84375 -2.28125 4.328125q-2.28125 1.5 -6.65625 1.5q-3.359375 0 -5.1875 -1.25q-1.8125 -1.25 -1.8125 -3.53125q0 -1.5625 1.0 -2.703125q1.0 -1.140625 2.8125 -1.546875q-0.65625 -0.296875 -1.109375 -0.921875q-0.4375 -0.625 -0.4375 -1.453125q0 -0.93743896 0.5 -1.640564q0.5 -0.703125 1.578125 -1.359375q-1.328125 -0.546875 -2.171875 -1.859375q-0.828125 -1.3125 -0.828125 -3.0q0 -2.8125 1.6875 -4.328125q1.6875 -1.53125 4.78125 -1.53125q1.34375 0 2.421875 0.3125l5.921875 0zm-13.65625 19.999939q0 1.390625 1.171875 2.109375q1.171875 0.71875 3.359375 0.71875q3.265625 0 4.828125 -0.984375q1.578125 -0.96875 1.578125 -2.640625q0 -1.390625 -0.859375 -1.9375q-0.859375 -0.53125 -3.234375 -0.53125l-3.109375 0q-1.765625 0 -2.75 0.84375q-0.984375 0.84375 -0.984375 2.421875zm1.40625 -14.515564q0 1.796875 1.015625 2.71875q1.015625 0.921875 2.828125 0.921875q3.796875 0 3.796875 -3.6875q0 -3.859375 -3.84375 -3.859375q-1.828125 0 -2.8125 0.984375q-0.984375 0.984375 -0.984375 2.921875z" fill-rule="nonzero"></path><path fill="#000000" fill-opacity="0.0" d="m749.5764 886.3543c69.74805 0 139.49603 -66.01575 139.49603 -132.0315" fill-rule="nonzero"></path><path stroke="#000000" stroke-width="3.0" stroke-linejoin="round" stroke-linecap="butt" d="m749.5764 886.3543c69.74805 0 139.49603 -66.01575 139.49603 -132.0315" fill-rule="nonzero"></path><path fill="#000000" fill-opacity="0.0" d="m364.53543 634.2913c-48.67975 0 -75.18237 0.01574707 -97.35953 0.03149414c-22.17717 0.01574707 -40.0289 0.03149414 -80.0578 0.03149414" fill-rule="nonzero"></path><path stroke="#000000" stroke-width="3.0" stroke-linejoin="round" stroke-linecap="butt" d="m364.53543 634.2913c-48.67975 0 -75.18237 0.01574707 -97.35953 0.03149414c-22.17717 0.01574707 -40.0289 0.03149414 -80.0578 0.03149414" fill-rule="nonzero"></path><path fill="#000000" fill-opacity="0.0" d="m285.93964 711.01575c-29.030853 0 -45.71129 -19.181091 -58.061676 -38.362183c-12.350388 -19.181152 -20.370743 -38.362244 -40.74147 -38.362244" fill-rule="nonzero"></path><path stroke="#000000" stroke-width="3.0" stroke-linejoin="round" stroke-linecap="butt" d="m285.93964 711.01575c-29.030853 0 -45.71129 -19.181091 -58.061676 -38.362183c-12.350388 -19.181152 -20.370743 -38.362244 -40.74147 -38.362244" fill-rule="nonzero"></path></g></svg>

